<?xml version="1.0" encoding="UTF-8" standalone="no"?>
<!-- Created with Inkscape (http://www.inkscape.org/) -->

<svg
   xmlns:dc="http://purl.org/dc/elements/1.1/"
   xmlns:cc="http://creativecommons.org/ns#"
   xmlns:rdf="http://www.w3.org/1999/02/22-rdf-syntax-ns#"
   xmlns:svg="http://www.w3.org/2000/svg"
   xmlns="http://www.w3.org/2000/svg"
   xmlns:sodipodi="http://sodipodi.sourceforge.net/DTD/sodipodi-0.dtd"
   xmlns:inkscape="http://www.inkscape.org/namespaces/inkscape"
   width="25.777191mm"
   height="42.655434mm"
   viewBox="0 0 25.777191 42.655434"
   version="1.1"
   id="svg8"
   inkscape:version="0.92.4 (5da689c313, 2019-01-14)"
   sodipodi:docname="ninjaINSK.svg">
  <defs
     id="defs2" />
  <sodipodi:namedview
     id="base"
     pagecolor="#ffffff"
     bordercolor="#666666"
     borderopacity="1.0"
     inkscape:pageopacity="0.0"
     inkscape:pageshadow="2"
     inkscape:zoom="0.98994949"
     inkscape:cx="-68.63845"
     inkscape:cy="46.610606"
     inkscape:document-units="mm"
     inkscape:current-layer="layer1"
     showgrid="false"
     fit-margin-top="0"
     fit-margin-left="0"
     fit-margin-right="0"
     fit-margin-bottom="0"
     inkscape:window-width="1565"
     inkscape:window-height="784"
     inkscape:window-x="485"
     inkscape:window-y="165"
     inkscape:window-maximized="0" />
  <metadata
     id="metadata5">
    <rdf:RDF>
      <cc:Work
         rdf:about="">
        <dc:format>image/svg+xml</dc:format>
        <dc:type
           rdf:resource="http://purl.org/dc/dcmitype/StillImage" />
        <dc:title></dc:title>
      </cc:Work>
    </rdf:RDF>
  </metadata>
  <g
     inkscape:label="Layer 1"
     inkscape:groupmode="layer"
     id="layer1"
     transform="translate(-54.247687,-110.84218)">
    <g
       id="g845">
      <path
         sodipodi:nodetypes="ccscccccscccccssscccccccccccccccccscsccccccccccccsccc"
         inkscape:connector-curvature="0"
         id="path828"
         d="m 60.793082,112.8483 c 1.972909,-2.47977 6.392185,-2.56854 10.644417,-0.77315 4.252233,1.79538 5.197173,5.57515 5.197173,7.74851 0,2.17336 -0.850447,4.34673 -0.94494,5.19717 -0.09449,0.85045 0.09449,3.2128 -1.41741,4.91369 -1.511906,1.70089 -3.96875,1.98438 -3.96875,1.98438 l 3.685267,2.92931 4.724702,-20.22172 c 0,0 1.700892,0.94494 1.228423,2.92931 -0.472472,1.98438 -3.779763,17.4814 -3.779763,17.4814 l 0.673271,0.0118 -0.118119,0.61421 -1.122117,1e-5 -0.177176,0.77957 c 0,0 0.980377,0.81501 0.980377,1.66545 0,0.85045 -0.555153,2.36235 -1.216611,2.55134 -0.661459,0.18899 -1.959318,-0.62281 -1.984375,0.28348 -0.02089,0.75567 0.536572,5.24552 0.135657,6.74176 -0.295517,1.4744 -0.258696,1.90642 -0.01774,2.31693 -0.141758,0.52608 -1.954409,0.85192 -2.321905,0.81851 -0.367495,-0.0334 -0.100226,0.86863 -0.100226,0.86863 0,0 2.321904,1.00226 2.455539,1.46998 0.133636,0.46772 -5.662774,0.30068 -5.813112,0.0835 -0.150339,-0.21716 -0.06682,-2.50565 -0.06682,-2.50565 0,0 -1.265476,-0.4318 -1.315588,-1.13338 -0.05012,-0.70158 -0.120991,-1.77318 0.430257,-2.37453 0.551244,-0.60136 0.06682,-0.86863 -0.367495,-0.46773 -0.434311,0.40091 -0.88533,0.28398 -0.801807,1.33635 0.08352,1.05238 0.133633,1.36976 0.0167,1.57021 -0.116929,0.20045 -1.102487,0.65147 -1.202713,0.86863 -0.100224,0.21715 0,2.3052 0,2.3052 0,0 0.08352,0.63476 -0.902034,0.65147 -0.985557,0.0167 -4.810852,-0.0167 -4.810852,-0.0167 0,0 -0.601356,-0.20045 0.100227,-0.7517 0.701582,-0.55124 2.171565,-0.75169 2.221677,-1.03567 0.05011,-0.28397 -0.250563,-1.06907 -0.283972,-1.30293 -0.03341,-0.23387 -1.904296,-0.96886 -2.121453,-1.46999 -0.217157,-0.50113 0.334086,-1.75395 0.467722,-1.921 0.133633,-0.16704 0.46772,-0.41761 0.400905,-1.05237 -0.06682,-0.63477 0.414742,-1.78653 0.297812,-2.0872 0.167044,-1.35305 -0.851922,-0.34892 -1.610536,-0.22206 0.417611,-0.83521 1.396245,-1.43251 1.613402,-1.85012 0.217156,-0.41761 -0.167045,-0.96885 -0.80181,-0.40091 -0.634764,0.56795 -3.123713,-0.56794 -3.407685,-1.5368 -0.283974,-0.96885 0.785104,-3.05689 0.952146,-3.44109 0.167044,-0.3842 0.88533,-1.85418 1.002263,-2.17157 0.11693,-0.31738 -3.090305,-15.70208 -3.090305,-15.70208 0,0 -0.200453,-1.87089 1.403165,-2.93997 0.734991,3.94223 3.407685,16.9048 3.407685,16.9048 0,0 0.565328,-0.0727 0.935445,-0.60135 0.825348,-1.17892 2.184024,-0.56564 2.004521,-1.06908 -1.469983,-1.1359 -3.274052,-2.73951 -3.608139,-3.74178 -0.334087,-1.00226 -2.527114,-7.25566 2.3947,-14.23507 z"
         style="fill:#000000;stroke:none;stroke-width:0.26458332px;stroke-linecap:butt;stroke-linejoin:miter;stroke-opacity:1" />
      <path
         sodipodi:nodetypes="cccsscc"
         inkscape:connector-curvature="0"
         id="path830"
         d="m 59.247767,122.23326 c 2.031621,-0.18899 5.338913,-1.08668 8.835194,-0.37798 3.496278,0.70871 6.283854,2.78757 7.228795,3.68527 -1.086683,0.66146 -2.594251,1.3296 -3.732517,1.22842 -2.126115,-0.18899 -1.937126,-1.08668 -2.976562,-1.27567 -1.039435,-0.18899 -2.220609,0.56697 -4.015997,0.14174 -1.795386,-0.42522 -3.401785,-0.94494 -5.338913,-3.40178 z"
         style="fill:#ffffff;stroke:#000000;stroke-width:0.26458332px;stroke-linecap:butt;stroke-linejoin:miter;stroke-opacity:1" />
      <path
         inkscape:connector-curvature="0"
         id="path832"
         d="m 63.16927,124.02864 c 0.425222,-0.89769 2.031622,-1.79538 2.740327,0.51972"
         style="fill:none;stroke:#000000;stroke-width:0.79374999;stroke-linecap:butt;stroke-linejoin:miter;stroke-miterlimit:4;stroke-dasharray:none;stroke-opacity:1" />
      <path
         inkscape:connector-curvature="0"
         id="path834"
         d="m 70.350818,125.35156 c 1.086681,-1.6064 2.504091,-0.85045 2.645834,0.47247"
         style="fill:none;stroke:#000000;stroke-width:0.79374999;stroke-linecap:butt;stroke-linejoin:miter;stroke-miterlimit:4;stroke-dasharray:none;stroke-opacity:1" />
      <path
         sodipodi:nodetypes="ccccsscccccccc"
         inkscape:connector-curvature="0"
         id="path838"
         d="m 57.854059,143.85048 c 2.254446,-1.36586 1.65611,0.15107 1.68667,0.71955 1.20789,-2.05721 2.311903,-5.34343 0.884533,0.74896 0.44382,-1.07934 0.88102,-0.71749 0.89514,-3.5e-4 0.20664,-0.20186 0.47726,-3.62274 0.71589,-3.83159 1.33299,-1.16666 3.14212,-2.35742 5.16998,-2.62178 2.73093,-0.35602 5.95543,1.62513 5.95543,1.62513 l -0.29257,-2.67063 c -2.51885,-1.0544 -3.92453,-1.59665 -5.93234,-1.24785 0.42771,-0.33792 3.40902,-2.4297 3.36678,-4.65302 l -0.96349,-0.007 c -0.63848,2.33653 -6.19065,6.08362 -6.78596,6.52959 -0.75988,0.56925 -2.287472,2.00172 -2.960912,2.87492 0.429417,0.82044 -1.354184,1.0584 -1.739151,2.53407 z"
         style="fill:#aa0000;fill-opacity:1;stroke:none;stroke-width:0.26458332;stroke-linecap:butt;stroke-linejoin:miter;stroke-miterlimit:4;stroke-dasharray:none;stroke-opacity:1" />
    </g>
  </g>
</svg>
